<svg width="84" height="86" viewBox="0 0 84 86" fill="none" xmlns="http://www.w3.org/2000/svg">
<path d="M5.86185 76.4474C4.95443 79.3396 4.82524 81.0099 4.67924 84L1 80.2237C1.03565 78.1617 1.26279 76.5822 1.3942 76.0428C1.3942 76.0428 1.78841 73.8477 1.91981 73.6151C1.91981 73.6151 3.10242 71.0526 3.89083 69.5691C4.67924 68.0855 5.38926 67.1382 6.51885 65.7928C7.85305 64.3707 8.48987 63.5 10.0667 62.2862C9.67248 61.8816 8.12136 59.3399 7.17586 57.2961C6.12465 55.273 5.99325 53.25 5.73045 52.9803C5.73045 52.9803 4.55069 48.984 4.41643 46.2368C4.28503 43.1349 4.24346 41.424 4.67924 38.1447C5.43288 35.4129 5.96039 33.903 7.17586 31.2664C9.00744 28.8329 10.005 27.2621 12.4319 25.1974C14.3249 23.2495 15.9523 22.2803 18.8706 20.7467C21.0445 19.7123 22.3467 19.2179 24.7836 18.4539C27.4298 17.6547 28.7257 17.2401 31.6165 16.8355C31.6165 16.8355 33.3247 16.8355 34.6387 16.5658C35.9527 16.2961 38.1866 16.4309 38.1866 16.4309L46.7276 15.8914L50.5383 15.4868L54.3489 14.8125C54.3489 14.8125 57.3711 14.3043 59.2108 14.0033C61.0504 13.7023 63.547 12.9243 63.547 12.9243C66.7006 12.1151 68.0147 11.8454 70.6427 10.6316C73.7963 9.41776 75.1148 8.60672 77.607 6.85526C79.8408 5.23684 80.892 4.15789 82.3374 2C83.1258 7.66447 83.08 11.7295 82.863 18.4539C82.7671 22.6775 82.6955 25.0579 82.0746 29.648C82.0746 29.648 81.6804 31.9408 81.549 32.8849C81.4176 33.8289 81.2862 34.773 81.1548 35.4474C81.0234 36.1217 80.892 37.0658 80.1036 40.7072C79.6849 42.4637 79.0387 44.2624 78.7896 44.8882C78.1396 46.5207 78.0012 47.3158 77.3442 48.6645C76.6871 50.0132 75.7673 52.0362 75.7673 52.0362L74.8475 53.7895L73.7963 55.6776L71.4311 58.9145C71.4311 58.9145 69.9857 60.5329 68.0146 62.5559C66.5988 64.0091 65.4581 64.763 64.0726 65.7928C60.262 68.625 58.1251 69.1256 54.4803 70.5132C51.6692 71.3811 50.0439 71.8286 46.859 72.4013C43.6742 72.974 43.4426 73.0757 40.946 73.3454L39.632 73.4803H38.4494H35.9527C32.9305 73.6151 31.2223 73.2105 28.4629 72.5362C26.7546 72.2664 25.6944 72.1373 23.9952 71.5921C23.979 71.6664 21.1922 70.5781 18.8706 69.4342C16.5489 68.2903 15.0825 67.3957 13.3517 65.9276C13.1414 65.8473 12.8261 65.7928 12.5633 65.9276C12.4319 65.9951 11.4086 66.8455 11.3807 66.8717C11.3528 66.8979 10.0955 68.143 9.54108 68.8947C9.30045 69.1758 9.09554 69.4472 8.62127 70.1086L7.83287 71.4572C6.84885 73.1591 6.43982 74.3778 5.86185 76.4474Z" fill="#35EC25" stroke="#159300" stroke-opacity="0.31"/>
<path d="M10.3295 40.8421C10.9762 38.1446 11.5307 36.8597 12.6947 34.773C13.6678 33.174 14.1725 32.4803 14.9285 31.5362C15.6846 30.5921 15.8484 30.4695 17.031 29.3783L17.0401 29.3699C18.2142 28.2864 18.3487 28.1624 19.7904 27.3553C21.2358 26.5461 22.5498 26.2763 22.5498 26.2763C21.4209 27.3297 21.3672 27.2204 19.659 28.9737C18.345 30.4572 18.3488 30.4597 17.4252 31.6711C16.6041 32.7244 16.0519 33.5253 15.4541 34.773C14.8564 36.0207 14.7971 35.9868 13.6145 38.5493C12.4319 41.1118 11.8457 44.6184 11.6435 45.9671C11.4413 47.3158 10.8591 51.0685 10.8551 54.4638L9.9353 51.0921L9.54109 47.5855C9.51724 44.8842 9.70235 43.4105 10.3295 40.8421Z" fill="#FAFF04" stroke="#B7CC1B" stroke-width="0.4"/>
<path d="M31.4026 27.5743C32.3967 25.7561 33.1124 24.9372 34.5336 23.6577C35.7024 22.6927 36.2905 22.2898 37.1588 21.7548C38.0272 21.2197 38.2044 21.1628 39.5114 20.6034L39.5216 20.5991C40.8192 20.0437 40.9678 19.9801 42.4916 19.6748C44.0194 19.3687 45.3462 19.4258 45.3462 19.4258C44.097 19.9682 44.0588 19.8793 42.1473 20.8147C40.6589 21.6314 40.6624 21.6339 39.5938 22.3293C38.647 22.9306 37.9979 23.4015 37.2447 24.1854C36.4915 24.9692 36.4378 24.9335 34.935 26.552C33.4323 28.1705 32.3899 30.5827 32.0119 31.5149C31.6339 32.4471 30.5628 35.0373 30.1072 37.4806L29.652 34.8776L29.731 32.2779C30.0669 30.3288 30.4448 29.3033 31.4026 27.5743Z" fill="#FAFF04" stroke="#B7CC1B" stroke-width="0.4"/>
<path d="M72.2523 32.6742C70.9147 33.4854 70.1021 33.7337 68.5949 33.9891C67.3821 34.1394 66.7972 34.1584 65.9521 34.1454C65.1069 34.1324 64.9504 34.094 63.7537 33.9059L63.7445 33.9044C62.5563 33.7177 62.4203 33.6963 61.1316 33.2394C59.8395 32.7813 58.685 32.9636 58.685 32.9636C59.8678 32.559 59.4234 32.75 61.1316 32.4803C62.1016 32.3271 61.4447 32.6151 62.89 32.3454C63.9413 32.2105 64.3354 32.0757 65.7262 32.0756C67.117 32.0756 67.1278 31.8534 68.8031 31.4013C70.4783 30.9492 72.4013 30.1812 72.9839 29.7077C73.5664 29.2342 75.2014 27.9277 76.3086 26.4526L75.8667 28.4353L75.0068 30.182C74.1452 31.3707 73.5341 31.9082 72.2523 32.6742Z" fill="#FAFF04" stroke="#B7CC1B" stroke-width="0.4"/>
<path d="M56.1522 49.9118C53.4903 50.7469 52.1152 50.9462 49.7671 51.0577C47.9325 51.0778 47.1006 51.0201 45.9384 50.8859C44.7762 50.7516 44.5967 50.6814 43.119 50.2776L43.1076 50.2745C41.6404 49.8736 41.4724 49.8277 40.1326 49.0725C38.7893 48.3154 36.7412 47.1574 36.7412 47.1574C38.975 47.3158 38.0683 47.2965 40.4204 47.5855C42.3914 47.8278 41.3402 47.8828 43.9682 47.9901C44.6433 47.9803 44.8863 48.125 45.9384 48.125C46.9904 48.125 47.5668 48.2599 48.1731 48.2599C49.2242 48.2599 49.8395 48.1634 52.6155 47.8278C55.3916 47.4921 58.8246 46.7931 60.1027 46.278C61.3808 45.763 65.1482 44.5683 68.1461 42.8651L67.2262 44.3487L66.0436 45.4276L63.0214 47.4507C60.6481 48.8275 58.6917 49.1259 56.1522 49.9118Z" fill="#FAFF04" stroke="#B7CC1B" stroke-width="0.4"/>
<path d="M50.8869 63.6801C46.5962 65.2533 45.0194 64.7138 41.4717 65.2533C38.318 65.0485 38.1866 65.1184 36.0841 64.9836C33.9817 64.8487 33.9818 64.7138 32.0107 64.4441C30.0396 64.1744 29.6887 64.0592 27.9373 63.6349C26.1858 63.2106 21.1044 61.2073 21.1044 61.2073C23.0754 61.2547 23.2068 61.6119 24.3894 61.6119C25.6515 61.8822 26.8874 62.0166 29.5141 62.2862C31.3271 62.4722 31.1389 62.5559 32.1421 62.5559L34.5074 62.5559L37.5296 62.5559C39.2378 62.5559 39.2378 62.6908 40.946 62.5559C42.6542 62.4211 41.2089 62.8256 46.2887 62.0554C51.3685 61.2851 55.394 59.6453 57.2398 58.6447C59.0856 57.6441 64.1279 54.28 68.5291 51.3705L67.0392 53.3555L65.2553 55.1381L63.2843 57.0263L60.9191 59.0493C57.4306 61.3851 54.5198 61.962 50.8869 63.6801Z" fill="#FAFF04" stroke="#B7CC1B" stroke-width="0.4"/>
<path d="M18.7392 53.3849L15.0599 57.2961L17.688 53.3849L20.7102 49.6086L24.1266 46.102L29.5141 41.9211C29.5141 41.9211 31.3537 40.5724 32.2735 40.0329C33.1933 39.4934 35.1643 38.5493 36.4783 37.7401C37.7924 36.9309 39.2378 36.3914 40.289 35.852C41.3402 35.3125 51.8523 29.648 51.8523 29.648L54.8745 27.8947L58.8166 25.7368C61.4168 24.1799 62.8085 23.245 65.1238 21.4211L68.5403 18.8586L74.0591 14.8125L71.5625 17.7796L67.7518 21.4211L64.0726 24.3882L60.6562 27.2204C58.5258 28.8777 54.8745 30.9967 54.3489 31.2664C53.8233 31.5362 51.9063 32.5759 48.0417 34.5033L43.4426 36.9309C41.2809 37.8032 39.7634 38.8191 38.0552 39.7632C36.3469 40.7072 34.5073 41.7862 33.3247 42.4605C32.1421 43.1349 28.5672 45.1288 25.7034 47.4507L22.287 50.148L18.7392 53.3849Z" fill="#FAFF04" stroke="#B7CC1B" stroke-width="0.4"/>
</svg>
