<svg width="84" height="86" viewBox="0 0 84 86" fill="none" xmlns="http://www.w3.org/2000/svg">
<path d="M78.1382 76.4474C79.0456 79.3396 79.1748 81.0099 79.3208 84L83 80.2237C82.9643 78.1617 82.7372 76.5822 82.6058 76.0428C82.6058 76.0428 82.2116 73.8477 82.0802 73.6151C82.0802 73.6151 80.8976 71.0526 80.1092 69.5691C79.3208 68.0855 78.6107 67.1382 77.4811 65.7928C76.1469 64.3707 75.5101 63.5 73.9333 62.2862C74.3275 61.8816 75.8786 59.3399 76.8241 57.2961C77.8754 55.273 78.0068 53.25 78.2696 52.9803C78.2696 52.9803 79.4493 48.984 79.5836 46.2368C79.715 43.1349 79.7565 41.424 79.3208 38.1447C78.5671 35.4129 78.0396 33.903 76.8241 31.2664C74.9926 28.8329 73.995 27.2621 71.5681 25.1974C69.6751 23.2495 68.0477 22.2803 65.1294 20.7467C62.9555 19.7123 61.6533 19.2179 59.2164 18.4539C56.5702 17.6547 55.2743 17.2401 52.3835 16.8355C52.3835 16.8355 50.6753 16.8355 49.3613 16.5658C48.0473 16.2961 45.8134 16.4309 45.8134 16.4309L37.2724 15.8914L33.4617 15.4868L29.6511 14.8125C29.6511 14.8125 26.6289 14.3043 24.7892 14.0033C22.9496 13.7023 20.453 12.9243 20.453 12.9243C17.2994 12.1151 15.9853 11.8454 13.3573 10.6316C10.2037 9.41776 8.88518 8.60672 6.39304 6.85526C4.15922 5.23684 3.10801 4.15789 1.6626 2C0.874191 7.66447 0.91996 11.7295 1.13699 18.4539C1.23293 22.6775 1.3045 25.0579 1.9254 29.648C1.9254 29.648 2.3196 31.9408 2.451 32.8849C2.58241 33.8289 2.71381 34.773 2.84521 35.4474C2.97661 36.1217 3.10801 37.0658 3.89642 40.7072C4.31507 42.4637 4.96128 44.2624 5.21043 44.8882C5.86041 46.5207 5.99884 47.3158 6.65585 48.6645C7.31285 50.0132 8.23266 52.0362 8.23266 52.0362L9.15247 53.7895L10.2037 55.6776L12.5689 58.9145C12.5689 58.9145 14.0143 60.5329 15.9854 62.5559C17.4012 64.0091 18.5419 64.763 19.9274 65.7928C23.738 68.625 25.8749 69.1256 29.5197 70.5132C32.3308 71.3811 33.9561 71.8286 37.141 72.4013C40.3258 72.974 40.5574 73.0757 43.054 73.3454L44.368 73.4803H45.5506H48.0473C51.0695 73.6151 52.7777 73.2105 55.5371 72.5362C57.2454 72.2664 58.3056 72.1373 60.0048 71.5921C60.021 71.6664 62.8078 70.5781 65.1294 69.4342C67.4511 68.2903 68.9175 67.3957 70.6483 65.9276C70.8586 65.8473 71.1739 65.7928 71.4367 65.9276C71.5681 65.9951 72.5914 66.8455 72.6193 66.8717C72.6472 66.8979 73.9045 68.143 74.4589 68.8947C74.6995 69.1758 74.9045 69.4472 75.3787 70.1086L76.1671 71.4572C77.1512 73.1591 77.5602 74.3778 78.1382 76.4474Z" fill="#35EC25" stroke="#159300" stroke-opacity="0.188235"/>
<path d="M73.6705 40.8421C73.0239 38.1446 72.4694 36.8597 71.3053 34.773C70.3322 33.174 69.8275 32.4803 69.0715 31.5362C68.3155 30.5921 68.1517 30.4695 66.9691 29.3783L66.9599 29.3699C65.7858 28.2864 65.6513 28.1624 64.2096 27.3553C62.7642 26.5461 61.4502 26.2763 61.4502 26.2763C62.5792 27.3297 62.6328 27.2204 64.341 28.9737C65.6551 30.4572 65.6512 30.4597 66.5749 31.6711C67.3959 32.7244 67.9482 33.5253 68.5459 34.773C69.1436 36.0207 69.2029 35.9868 70.3855 38.5493C71.5681 41.1118 72.1544 44.6184 72.3565 45.9671C72.5587 47.3158 73.1409 51.0685 73.1449 54.4638L74.0647 51.0921L74.4589 47.5855C74.4828 44.8842 74.2977 43.4105 73.6705 40.8421Z" fill="#FAFF04" stroke="#B7CC1B" stroke-width="0.4"/>
<path d="M52.5974 27.5743C51.6033 25.7561 50.8876 24.9372 49.4664 23.6577C48.2976 22.6927 47.7095 22.2898 46.8412 21.7548C45.9728 21.2197 45.7956 21.1628 44.4886 20.6034L44.4784 20.5991C43.1808 20.0437 43.0322 19.9801 41.5084 19.6748C39.9806 19.3687 38.6537 19.4258 38.6537 19.4258C39.903 19.9682 39.9412 19.8793 41.8527 20.8147C43.3411 21.6314 43.3376 21.6339 44.4062 22.3293C45.353 22.9306 46.0021 23.4015 46.7553 24.1854C47.5085 24.9692 47.5622 24.9335 49.065 26.552C50.5677 28.1705 51.6101 30.5827 51.9881 31.5149C52.3661 32.4471 53.4372 35.0373 53.8928 37.4806L54.348 34.8776L54.2689 32.2779C53.9331 30.3288 53.5552 29.3033 52.5974 27.5743Z" fill="#FAFF04" stroke="#B7CC1B" stroke-width="0.4"/>
<path d="M11.7476 32.6742C13.0853 33.4854 13.8979 33.7337 15.4051 33.9891C16.6179 34.1394 17.2027 34.1584 18.0479 34.1454C18.8931 34.1324 19.0496 34.094 20.2463 33.9059L20.2555 33.9044C21.4436 33.7177 21.5797 33.6963 22.8684 33.2394C24.1604 32.7813 25.3149 32.9636 25.3149 32.9636C24.1322 32.559 24.5766 32.75 22.8684 32.4803C21.8984 32.3271 22.5553 32.6151 21.11 32.3454C20.0587 32.2105 19.6646 32.0757 18.2738 32.0756C16.883 32.0756 16.8722 31.8534 15.1969 31.4013C13.5217 30.9492 11.5986 30.1812 11.0161 29.7077C10.4335 29.2342 8.79857 27.9277 7.69141 26.4526L8.13331 28.4353L8.99321 30.182C9.85481 31.3707 10.4659 31.9082 11.7476 32.6742Z" fill="#FAFF04" stroke="#B7CC1B" stroke-width="0.4"/>
<path d="M27.8478 49.9118C30.5097 50.7469 31.8849 50.9462 34.233 51.0577C36.0676 51.0778 36.8995 51.0201 38.0617 50.8859C39.2239 50.7516 39.4034 50.6814 40.8811 50.2776L40.8925 50.2745C42.3597 49.8736 42.5277 49.8277 43.8675 49.0725C45.2108 48.3154 47.2589 47.1574 47.2589 47.1574C45.0251 47.3158 45.9318 47.2965 43.5797 47.5855C41.6087 47.8278 42.6599 47.8828 40.0319 47.9901C39.3567 47.9803 39.1138 48.125 38.0617 48.125C37.0096 48.125 36.4332 48.2599 35.827 48.2599C34.7759 48.2599 34.1606 48.1634 31.3846 47.8278C28.6085 47.4921 25.1755 46.7931 23.8974 46.2781C22.6192 45.763 18.8519 44.5683 15.854 42.8651L16.7738 44.3487L17.9564 45.4276L20.9787 47.4507C23.352 48.8275 25.3084 49.1259 27.8478 49.9118Z" fill="#FAFF04" stroke="#B7CC1B" stroke-width="0.4"/>
<path d="M33.1132 63.6801C37.4038 65.2533 38.9806 64.7138 42.5284 65.2533C45.682 65.0485 45.8135 65.1184 47.9159 64.9836C50.0183 64.8487 50.0183 64.7138 51.9894 64.4441C53.9604 64.1744 54.3114 64.0592 56.0628 63.6349C57.8142 63.2106 62.8957 61.2073 62.8957 61.2073C60.9246 61.2547 60.7932 61.6119 59.6106 61.6119C58.3486 61.8822 57.1127 62.0166 54.486 62.2862C52.673 62.4722 52.8612 62.5559 51.858 62.5559L49.4927 62.5559L46.4704 62.5559C44.7623 62.5559 44.7623 62.6908 43.0541 62.5559C41.3458 62.4211 42.7912 62.8256 37.7114 62.0554C32.6316 61.2851 28.6061 59.6453 26.7602 58.6447C24.9144 57.6441 19.8722 54.28 15.471 51.3705L16.9608 53.3555L18.7448 55.1381L20.7158 57.0263L23.081 59.0493C26.5695 61.3851 29.4803 61.962 33.1132 63.6801Z" fill="#FAFF04" stroke="#B7CC1B" stroke-width="0.4"/>
<path d="M65.2608 53.3849L68.9401 57.2961L66.312 53.3849L63.2898 49.6086L59.8734 46.102L54.4859 41.9211C54.4859 41.9211 52.6463 40.5724 51.7265 40.0329C50.8067 39.4934 48.8357 38.5493 47.5217 37.7401C46.2076 36.9309 44.7622 36.3914 43.711 35.852C42.6598 35.3125 32.1477 29.648 32.1477 29.648L29.1255 27.8947L25.1834 25.7368C22.5832 24.1799 21.1915 23.245 18.8762 21.4211L15.4597 18.8586L9.94089 14.8125L12.4375 17.7796L16.2482 21.4211L19.9274 24.3882L23.3438 27.2204C25.4742 28.8777 29.1255 30.9967 29.6511 31.2664C30.1767 31.5362 32.0937 32.5759 35.9583 34.5033L40.5574 36.9309C42.7191 37.8032 44.2366 38.8191 45.9448 39.7632C47.6531 40.7072 49.4927 41.7862 50.6753 42.4605C51.8579 43.1349 55.4328 45.1288 58.2966 47.4507L61.713 50.148L65.2608 53.3849Z" fill="#FAFF04" stroke="#B7CC1B" stroke-width="0.4"/>
</svg>
